<?xml version="1.0" standalone="no"?>
<!DOCTYPE svg PUBLIC "-//W3C//DTD SVG 20010904//EN"
 "http://www.w3.org/TR/2001/REC-SVG-20010904/DTD/svg10.dtd">
<svg version="1.0" xmlns="http://www.w3.org/2000/svg"
 width="700.000000pt" height="700.000000pt" viewBox="0 0 700.000000 700.000000"
 preserveAspectRatio="xMidYMid meet">
<metadata>
Created by potrace 1.14, written by Peter Selinger 2001-2017
</metadata>
<g transform="translate(0.000000,700.000000) scale(0.100000,-0.100000)"
fill="#000000" stroke="none">
<path d="M3248 6390 c-726 -54 -1425 -395 -1922 -938 -810 -887 -987 -2190
-443 -3262 595 -1171 1903 -1796 3190 -1524 1560 329 2561 1872 2231 3437
-235 1114 -1117 1996 -2231 2231 -251 53 -571 75 -825 56z m572 -375 c556 -79
1058 -332 1452 -731 402 -407 643 -905 720 -1484 16 -122 16 -478 0 -600 -100
-758 -503 -1408 -1130 -1822 -891 -587 -2062 -551 -2916 91 -641 482 -1016
1232 -1016 2031 0 670 267 1316 740 1791 419 421 961 676 1565 738 127 13 448
6 585 -14z"/>
<path d="M3265 5963 c-492 -43 -951 -227 -1350 -542 -94 -74 -297 -277 -375
-376 -232 -293 -406 -654 -484 -1010 -50 -225 -70 -555 -47 -776 86 -819 556
-1530 1271 -1924 548 -301 1184 -382 1800 -228 241 60 538 191 745 329 551
366 929 922 1063 1564 37 174 47 281 47 500 0 219 -10 326 -47 500 -48 230
-117 423 -227 635 -428 828 -1284 1344 -2210 1333 -80 -1 -164 -3 -186 -5z
m1505 -708 c230 -54 406 -224 482 -465 33 -106 33 -298 0 -415 -61 -213 -180
-371 -365 -483 -152 -92 -370 -120 -392 -51 -9 27 7 44 79 82 90 47 202 163
253 262 71 139 78 171 78 345 0 177 -10 218 -75 319 -81 126 -218 193 -390
193 -209 -1 -377 -104 -517 -318 -122 -188 -193 -402 -239 -719 -25 -168 -25
-527 -1 -683 56 -358 196 -616 414 -762 92 -62 181 -91 298 -97 185 -10 345
52 490 189 105 99 170 194 256 372 38 79 76 146 85 150 54 21 60 -5 23 -112
-104 -296 -283 -565 -467 -700 -129 -95 -250 -142 -418 -162 -425 -51 -783
180 -954 617 -21 54 -41 91 -43 83 -8 -26 -38 -192 -35 -194 2 -1 16 -7 31
-14 56 -24 41 -76 -21 -70 l-34 3 -39 -99 c-155 -389 -481 -668 -904 -771
-247 -61 -430 -17 -572 138 -193 212 -172 541 46 713 73 58 225 136 339 174
200 67 459 87 679 53 169 -26 156 -30 170 52 6 39 19 205 27 370 28 510 85
1488 90 1523 8 55 1 62 -68 62 -78 0 -191 -31 -281 -78 -50 -26 -95 -61 -160
-126 -103 -104 -148 -181 -191 -321 -24 -81 -27 -106 -28 -245 -1 -178 10
-233 76 -370 34 -70 56 -100 132 -175 50 -49 128 -115 174 -145 62 -41 82 -60
82 -77 0 -78 -340 -33 -518 69 -114 65 -202 161 -256 280 -51 111 -61 166 -61
328 1 120 4 159 23 225 62 215 177 401 361 582 239 236 602 427 879 464 109
15 159 7 174 -27 11 -24 6 -248 -18 -734 l-6 -115 56 112 c151 303 374 546
606 663 90 45 202 86 290 104 89 19 279 20 360 1z"/>
<path d="M2745 2673 c-22 -2 -83 -10 -136 -18 -375 -57 -749 -324 -752 -537
-1 -61 22 -95 89 -128 43 -22 61 -25 149 -24 364 2 711 264 864 650 l20 52
-22 6 c-22 6 -139 5 -212 -1z"/>
</g>
</svg>
