<svg width="87" height="87" viewBox="0 0 87 87" fill="none" xmlns="http://www.w3.org/2000/svg">
<circle cx="43.5" cy="43.5" r="43.5" fill="#AC5122"/>
<path d="M80 43.5C80 63.6584 63.6584 80 43.5 80C23.3416 80 7 63.6584 7 43.5C7 23.3416 23.3416 7 43.5 7C63.6584 7 80 23.3416 80 43.5Z" fill="#AC5122"/>
<path fill-rule="evenodd" clip-rule="evenodd" d="M43.4998 80.5724C63.9744 80.5724 80.5724 63.9744 80.5724 43.4998C80.5724 23.0251 63.9744 6.42711 43.4998 6.42711C23.0251 6.42711 6.42711 23.0251 6.42711 43.4998C6.42711 63.9744 23.0251 80.5724 43.4998 80.5724ZM43.4998 81.6167C64.5512 81.6167 81.6167 64.5512 81.6167 43.4998C81.6167 22.4483 64.5512 5.38281 43.4998 5.38281C22.4483 5.38281 5.38281 22.4483 5.38281 43.4998C5.38281 64.5512 22.4483 81.6167 43.4998 81.6167ZM67.4321 28.7415C67.4321 29.7066 67.31 30.6628 67.0658 31.61C66.8391 32.5572 66.4728 33.4866 65.967 34.3981C65.4961 35.256 64.9293 35.9977 64.2666 36.6232C63.6213 37.2487 62.9498 37.776 62.2522 38.2049C61.5546 38.616 60.8657 38.9288 60.1855 39.1432C59.5227 39.3398 58.9385 39.4381 58.4327 39.4381C57.9618 39.4381 57.5955 39.3666 57.3339 39.2236C57.0898 39.0807 56.9677 38.9019 56.9677 38.6875C56.9677 38.4373 57.1857 38.2228 57.6217 38.0441C57.9007 37.919 58.3106 37.6687 58.8513 37.2934C59.4094 36.9181 59.9587 36.3909 60.4994 35.7117C61.0575 35.0147 61.5458 34.1568 61.9644 33.1381C62.383 32.1015 62.5923 30.8772 62.5923 29.4653C62.5923 28.2143 62.4092 27.1508 62.0429 26.2751C61.6766 25.3994 61.197 24.6934 60.604 24.1572C60.0111 23.6032 59.3396 23.201 58.5897 22.9508C57.8571 22.7006 57.1159 22.5755 56.366 22.5755C54.7614 22.5755 53.3226 23.067 52.0494 24.05C50.7763 25.033 49.6949 26.3823 48.8055 28.0981C47.916 29.796 47.2358 31.7977 46.7649 34.1032C46.294 36.3909 46.0586 38.8573 46.0586 41.5024C46.0586 43.4505 46.1981 45.2109 46.4771 46.7837C46.7736 48.3386 47.166 49.7147 47.6544 50.9122C48.1427 52.0918 48.7183 53.1105 49.381 53.9684C50.0437 54.8084 50.7414 55.4965 51.4739 56.0326C52.2064 56.5688 52.9563 56.962 53.7237 57.2122C54.5085 57.4624 55.2672 57.5875 55.9997 57.5875C57.3252 57.5875 58.5112 57.3462 59.5576 56.8637C60.6215 56.3633 61.5633 55.702 62.383 54.8799C63.2201 54.0399 63.9526 53.0747 64.5805 51.9845C65.2084 50.8764 65.7578 49.7058 66.2286 48.4726C66.3159 48.2403 66.4292 48.0705 66.5687 47.9632C66.7257 47.856 66.874 47.8024 67.0135 47.8024C67.2576 47.8024 67.3797 47.9454 67.3797 48.2313C67.3797 48.3564 67.3013 48.6513 67.1443 49.116C67.0048 49.5807 66.7955 50.1347 66.5164 50.7781C66.2548 51.4216 65.9409 52.1186 65.5746 52.8692C65.2084 53.602 64.8072 54.3079 64.3712 54.9871C63.0632 57.0424 61.5546 58.5884 59.8454 59.625C58.1536 60.6795 56.1567 61.2067 53.8545 61.2067C51.7791 61.2067 49.9478 60.742 48.3607 59.8126C46.7911 58.8833 45.4656 57.6233 44.3843 56.0326C43.4542 54.642 42.724 53.0534 42.1939 51.2666C42.1567 51.5652 42.1142 51.8582 42.0662 52.1458C41.9616 52.8607 41.8221 53.5577 41.6477 54.2368L42.1186 54.3977C42.4499 54.5407 42.6156 54.7283 42.6156 54.9607C42.6156 55.0858 42.5633 55.193 42.4587 55.2824C42.3715 55.3717 42.2407 55.4164 42.0662 55.4164C42.0139 55.4164 41.9267 55.4075 41.8046 55.3896C41.7 55.3717 41.5518 55.3449 41.3599 55.3092C40.8541 56.9713 40.1827 58.4547 39.3455 59.7594C38.5084 61.0641 37.5491 62.2079 36.4678 63.1909C35.3865 64.1739 34.2092 64.9871 32.9361 65.6305C31.6629 66.2918 30.3374 66.8011 28.9596 67.1586C27.9829 67.4088 27.0411 67.5339 26.1342 67.5339C25.1924 67.5339 24.3204 67.3373 23.5181 66.9441C22.7159 66.5688 22.027 66.0594 21.4514 65.416C20.8584 64.7726 20.3963 64.0309 20.0649 63.1909C19.7335 62.3688 19.5678 61.5109 19.5678 60.6173C19.5678 59.5449 19.8556 58.4815 20.4311 57.4271C20.9892 56.3726 21.9136 55.47 23.2042 54.7194C24.7913 53.8079 26.3435 53.1734 27.8609 52.816C29.3956 52.4407 30.8781 52.253 32.3082 52.253C33.2151 52.253 34.0959 52.3155 34.9505 52.4407C35.8225 52.5479 36.6597 52.6998 37.4619 52.8964C37.5666 52.4138 37.6538 51.9134 37.7235 51.3951C37.7933 50.8589 37.8456 50.3049 37.8805 49.733C37.9328 48.75 38.0026 47.3738 38.0898 45.6045C38.1595 44.1032 38.2642 42.1104 38.4037 39.6262C38.5432 37.124 38.7264 33.9963 38.9531 30.2431C38.9705 29.85 38.9967 29.4121 39.0316 28.9295C39.0665 28.447 39.0926 27.9912 39.1101 27.5623C39.1449 27.1155 39.1711 26.7223 39.1885 26.3827C39.2234 26.0431 39.2409 25.8108 39.2409 25.6857C39.2409 25.5427 39.1973 25.4444 39.1101 25.3908C39.0403 25.3372 38.9618 25.3104 38.8746 25.3104C37.5491 25.3104 36.3108 25.5785 35.1598 26.1146C34.0261 26.6329 33.0407 27.3657 32.2036 28.3129C31.3664 29.2423 30.7037 30.3593 30.2153 31.664C29.7444 32.9508 29.509 34.3717 29.509 35.9266C29.509 37.0883 29.6398 38.1159 29.9014 39.0096C30.163 39.9032 30.4944 40.6985 30.8955 41.3955C31.3141 42.0747 31.7676 42.6645 32.2559 43.1649C32.7442 43.6474 33.2151 44.0674 33.6686 44.4249C34.122 44.7645 34.5232 45.0504 34.872 45.2828C35.2382 45.4972 35.4911 45.676 35.6307 45.8189C35.7353 45.9262 35.7876 46.0334 35.7876 46.1406C35.7876 46.3015 35.683 46.4445 35.4737 46.5696C35.2818 46.6768 34.9853 46.7304 34.5842 46.7304C34.0261 46.7304 33.3895 46.6768 32.6745 46.5696C31.9768 46.4623 31.2531 46.2747 30.5031 46.0066C29.7706 45.7385 29.0468 45.3721 28.3317 44.9074C27.6341 44.4428 27.0063 43.853 26.4482 43.1381C25.9075 42.4232 25.4628 41.5653 25.114 40.5645C24.7826 39.5636 24.6169 38.384 24.6169 37.0257C24.6169 35.4172 24.9134 33.8712 25.5064 32.3878C26.0993 30.8866 26.8842 29.4925 27.8609 28.2057C28.8375 26.9189 29.9537 25.7572 31.2095 24.7206C32.4652 23.6661 33.7645 22.7725 35.1074 22.0397C36.4504 21.2891 37.7671 20.7082 39.0577 20.2972C40.3658 19.8861 41.5605 19.6806 42.6418 19.6806C43.0952 19.6806 43.4092 19.7699 43.5836 19.9486C43.758 20.1095 43.8452 20.3955 43.8452 20.8065C43.8452 20.8959 43.8278 21.3516 43.7929 22.1738C43.758 22.978 43.7057 24.0682 43.6359 25.4444C43.5836 26.8206 43.5138 28.4291 43.4266 30.27C43.4024 30.7809 43.3769 31.3029 43.35 31.8359C43.5851 31.2338 43.8339 30.6581 44.0965 30.1087C44.9511 28.3572 45.8667 26.8738 46.8434 25.6585C47.8375 24.4253 48.7706 23.4602 49.6426 22.7632C50.0961 22.3879 50.6367 22.0036 51.2646 21.6104C51.8925 21.2172 52.5814 20.8687 53.3313 20.5649C54.0813 20.2432 54.8748 19.984 55.712 19.7874C56.5665 19.573 57.4386 19.4657 58.328 19.4657C59.7233 19.4657 60.979 19.7159 62.0952 20.2164C63.2289 20.6989 64.1881 21.3602 64.9729 22.2002C65.7578 23.0402 66.3595 24.0232 66.778 25.1491C67.214 26.2751 67.4321 27.4725 67.4321 28.7415ZM28.3579 63.8075C27.2417 64.1471 26.2302 64.3169 25.3232 64.3169C24.2419 64.3169 23.4484 64.1203 22.9426 63.7271C22.4368 63.3517 22.1839 62.8513 22.1839 62.2258C22.1839 61.6003 22.4281 60.9211 22.9164 60.1883C23.4048 59.4734 24.0501 58.7854 24.8523 58.1241C25.6721 57.4628 26.6051 56.873 27.6516 56.3547C28.698 55.8185 29.7706 55.4253 30.8694 55.1751C31.7065 54.9785 32.5262 54.8445 33.3285 54.773C34.1308 54.6836 34.8981 54.639 35.6307 54.639C35.8748 54.639 36.1103 54.6479 36.337 54.6658C36.5637 54.6658 36.7905 54.6747 37.0172 54.6926C36.4591 56.4619 35.7004 57.9543 34.7412 59.1696C33.7994 60.4028 32.7791 61.3947 31.6804 62.1454C30.5816 62.9139 29.4741 63.4679 28.3579 63.8075Z" fill="#F6F3EF"/>
</svg>
